<svg width="45" height="57" viewBox="0 0 45 57" fill="none" xmlns="http://www.w3.org/2000/svg">
<path d="M44.3462 27.4815L23.0336 0.356537C22.9428 0.245126 22.8283 0.15533 22.6984 0.0936621C22.5686 0.0319941 22.4266 0 22.2829 0C22.1391 0 21.9972 0.0319941 21.8673 0.0936621C21.7374 0.15533 21.6229 0.245126 21.5321 0.356537L0.219586 27.4815C0.0777167 27.6514 0 27.8657 0 28.087C0 28.3083 0.0777167 28.5226 0.219586 28.6925L21.5321 55.8175C21.6229 55.9289 21.7374 56.0187 21.8673 56.0803C21.9972 56.142 22.1391 56.174 22.2829 56.174C22.4266 56.174 22.5686 56.142 22.6984 56.0803C22.8283 56.0187 22.9428 55.9289 23.0336 55.8175L44.3462 28.6925C44.488 28.5226 44.5657 28.3083 44.5657 28.087C44.5657 27.8657 44.488 27.6514 44.3462 27.4815ZM23.2516 3.77138L42.0696 27.7237L23.2516 36.2729V3.77138ZM21.3141 36.2729L2.49615 27.7237L21.3141 3.77138V36.2729ZM21.3141 38.4042V52.4026L4.19146 30.6058L21.3141 38.4042ZM23.2516 38.4042L40.3743 30.6058L23.2516 52.4026V38.4042Z" fill="#ADA375"/>
</svg>
