<svg width="53" height="48" viewBox="0 0 53 48" fill="none" xmlns="http://www.w3.org/2000/svg">
<path d="M26.6574 40.4687L26.3991 40.727L26.1149 40.4687C13.8441 29.3345 5.7324 21.972 5.7324 14.5062C5.7324 9.33952 9.6074 5.46452 14.7741 5.46452C18.7524 5.46452 22.6274 8.04785 23.9966 11.5612H28.8016C30.1707 8.04785 34.0457 5.46452 38.0241 5.46452C43.1907 5.46452 47.0657 9.33952 47.0657 14.5062C47.0657 21.972 38.9541 29.3345 26.6574 40.4687ZM38.0241 0.297852C33.5291 0.297852 29.2149 2.39035 26.3991 5.67118C23.5832 2.39035 19.2691 0.297852 14.7741 0.297852C6.8174 0.297852 0.565735 6.52368 0.565735 14.5062C0.565735 24.2454 9.34907 32.2279 22.6532 44.292L26.3991 47.702L30.1449 44.292C43.4491 32.2279 52.2324 24.2454 52.2324 14.5062C52.2324 6.52368 45.9807 0.297852 38.0241 0.297852Z" fill="#ADA375"/>
</svg>
