<svg width="47" height="47" viewBox="0 0 47 47" fill="none" xmlns="http://www.w3.org/2000/svg">
<path fill-rule="evenodd" clip-rule="evenodd" d="M32.045 17.0909C32.045 19.3573 31.1447 21.5308 29.5421 23.1334C27.9395 24.736 25.766 25.6363 23.4996 25.6363C21.2332 25.6363 19.0596 24.736 17.457 23.1334C15.8544 21.5308 14.9541 19.3573 14.9541 17.0909C14.9541 14.8245 15.8544 12.6509 17.457 11.0483C19.0596 9.44573 21.2332 8.54541 23.4996 8.54541C25.766 8.54541 27.9395 9.44573 29.5421 11.0483C31.1447 12.6509 32.045 14.8245 32.045 17.0909ZM27.7723 17.0909C27.7723 18.2241 27.3221 19.3108 26.5208 20.1121C25.7195 20.9134 24.6328 21.3636 23.4996 21.3636C22.3664 21.3636 21.2796 20.9134 20.4783 20.1121C19.677 19.3108 19.2268 18.2241 19.2268 17.0909C19.2268 15.9577 19.677 14.8709 20.4783 14.0696C21.2796 13.2683 22.3664 12.8181 23.4996 12.8181C24.6328 12.8181 25.7195 13.2683 26.5208 14.0696C27.3221 14.8709 27.7723 15.9577 27.7723 17.0909Z" fill="#F5F4F4"/>
<path fill-rule="evenodd" clip-rule="evenodd" d="M23.5 0C10.5216 0 0 10.5216 0 23.5C0 36.4784 10.5216 47 23.5 47C36.4784 47 47 36.4784 47 23.5C47 10.5216 36.4784 0 23.5 0ZM4.27273 23.5C4.27273 27.965 5.79595 32.0754 8.34891 35.3397C10.1418 32.9852 12.4548 31.0771 15.1072 29.7645C17.7595 28.4518 20.6795 27.7702 23.6389 27.7727C26.56 27.77 29.4432 28.434 32.0688 29.7142C34.6944 30.9945 36.9932 32.8571 38.79 35.1603C40.641 32.7325 41.8873 29.8989 42.4258 26.8938C42.9643 23.8887 42.7795 20.7986 41.8866 17.8792C40.9937 14.9597 39.4185 12.2949 37.2913 10.1051C35.164 7.91529 32.5459 6.26352 29.6535 5.28645C26.7612 4.30938 23.6777 4.0351 20.6583 4.48631C17.6389 4.93751 14.7704 6.10122 12.29 7.88116C9.80964 9.6611 7.78878 12.0061 6.39463 14.7221C5.00047 17.4381 4.27311 20.4471 4.27273 23.5ZM23.5 42.7273C19.0862 42.7339 14.8056 41.2155 11.3825 38.4289C12.7604 36.4565 14.5942 34.8461 16.7281 33.7346C18.8621 32.6232 21.2329 32.0437 23.6389 32.0455C26.0148 32.0436 28.357 32.6085 30.4708 33.6935C32.5846 34.7785 34.4091 36.3521 35.7926 38.2836C32.343 41.1607 27.9919 42.7336 23.5 42.7273Z" fill="currentColor"/>
</svg>
