<svg width="47" height="47" viewBox="0 0 47 47" fill="none" xmlns="http://www.w3.org/2000/svg">
<path d="M41.7778 11.1905H36.5556C36.5556 4.92381 30.8111 0 23.5 0C16.1889 0 10.4444 4.92381 10.4444 11.1905H5.22222C2.35 11.1905 0 13.2048 0 15.6667V42.5238C0 44.9857 2.35 47 5.22222 47H41.7778C44.65 47 47 44.9857 47 42.5238V15.6667C47 13.2048 44.65 11.1905 41.7778 11.1905ZM23.5 4.47619C27.9389 4.47619 31.3333 7.38571 31.3333 11.1905H15.6667C15.6667 7.38571 19.0611 4.47619 23.5 4.47619ZM41.7778 42.5238H5.22222V15.6667H41.7778V42.5238ZM23.5 24.619C19.0611 24.619 15.6667 21.7095 15.6667 17.9048H10.4444C10.4444 24.1714 16.1889 29.0952 23.5 29.0952C30.8111 29.0952 36.5556 24.1714 36.5556 17.9048H31.3333C31.3333 21.7095 27.9389 24.619 23.5 24.619Z" fill="currentColor"/>
</svg>
